<svg xmlns="http://www.w3.org/2000/svg" xmlns:xlink="http://www.w3.org/1999/xlink" viewBox="0,0,255.9946,255.9946" width="50px" height="50px" fill-rule="nonzero"><g fill="#ffffff" fill-rule="nonzero" stroke="none" stroke-width="1" stroke-linecap="butt" stroke-linejoin="none" stroke-miterlimit="10" stroke-dasharray="" stroke-dashoffset="0" font-family="none" font-weight="none" font-size="none" text-anchor="none" style="mix-blend-mode: normal"><path transform="scale(5.12,5.12)" d="M16,19v7h-14v5h-2v-7h14v-3h-14v-2zM32,19v2h-7v10h-9v-2h7v-10zM50,19v7h-14v5h-2v-7h14v-3h-14v-2z" id="strokeMainSVG" stroke="#ffffff" stroke-linejoin="round"></path><g transform="scale(5.12,5.12)" stroke="none" stroke-linejoin="miter"><path d="M0,19v2h14v3h-14v7h2v-5h14v-7zM23,19v10h-7v2h9v-10h7v-2zM34,19v2h14v3h-14v7h2v-5h14v-7z"></path></g></g></svg>